<?xml version="1.0" encoding="utf-8"?>
<!-- Generator: Adobe Illustrator 24.0.1, SVG Export Plug-In . SVG Version: 6.00 Build 0)  -->
<svg version="1.1" xmlns="http://www.w3.org/2000/svg" xmlns:xlink="http://www.w3.org/1999/xlink" x="0px" y="0px"
	 viewBox="0 0 180.4 218.7" style="enable-background:new 0 0 180.4 218.7;" xml:space="preserve">
<style type="text/css">
	.st0{display:none;}
	.st1{display:inline;}
	.st2{fill:#F9F1E1;}
	.st3{fill:#EAF4FE;}
	.st4{fill:none;stroke:#0561FC;stroke-width:6.8376;stroke-miterlimit:10;}
	.st5{fill:#0561FC;}
	.st6{fill:#C5E1F9;}
	.st7{fill:#7EB3FF;}
	.st8{fill:#B5D5EA;}
	.st9{fill:#E1EBF4;}
	.st10{fill:#9AC7F7;}
	.st11{fill:none;stroke:#0561FC;stroke-width:6.8376;}
	.st12{fill:none;stroke:#7EB3FF;stroke-width:6.8376;}
	.st13{fill:none;stroke:#0561FC;stroke-width:6.8376;stroke-linecap:round;}
	.st14{fill:none;stroke:#0561FC;stroke-width:7.1001;}
	.st15{fill:#B6D9EF;}
	.st16{fill:none;stroke:#9AC7F7;stroke-width:6.8376;}
	.st17{fill:none;stroke:#0561FC;stroke-width:6.8376;stroke-linejoin:bevel;}
	.st18{fill:none;stroke:#0561FC;stroke-width:6.8376;stroke-linecap:round;stroke-linejoin:round;}
	.st19{fill:none;stroke:#0561FC;stroke-width:5.0237;}
	.st20{fill:none;stroke:#0450CF;stroke-width:6.8376;}
	.st21{fill:none;stroke:#C5E1F9;stroke-width:6.8376;}
	.st22{fill:#FFBF0D;}
	.st23{fill:#B2D2EA;}
	.st24{fill:none;stroke:#0561FC;stroke-width:6.9311;}
	.st25{fill:none;stroke:#0561FC;stroke-width:6.8376;stroke-linecap:round;stroke-miterlimit:10;}
	.st26{fill:#FFFFFF;}
	.st27{fill:#FFFFFF;stroke:#0561FC;stroke-width:6.8376;}
</style>
<g id="Layer_2">
	<g class="st0">
		<g class="st1">
			<rect x="-15.4" y="1.9" class="st2" width="218.8" height="218.8"/>
		</g>
	</g>
</g>
<g id="Layer_3">
</g>
<g id="Layer_4">
	<g>
		<path class="st16" d="M68.8,54.7V23.9c0-11.3,9.2-20.5,20.5-20.5h37.6c11.3,0,20.5,9.2,20.5,20.5v30.8"/>
		<polyline class="st10" points="93.8,41 125.8,41 125.8,215.4 3,215.4 3,41 24.4,41 		"/>
		<path class="st11" d="M31.7,54.7V23.9c0-11.3,9.2-20.5,20.5-20.5h37.6c11.3,0,20.5,9.2,20.5,20.5v30.8"/>
		<g>
			<rect x="3.4" y="36.9" class="st11" width="125.4" height="178.4"/>
			<polyline class="st17" points="138.4,36.9 177,36.9 177,215.3 152.9,205.7 128.8,215.3 			"/>
			<line class="st17" x1="152.9" y1="205.7" x2="152.9" y2="162.3"/>
			<line class="st17" x1="152.9" y1="152.6" x2="152.9" y2="143"/>
			<line class="st17" x1="152.9" y1="133.4" x2="152.9" y2="123.7"/>
			<line class="st17" x1="152.9" y1="114.1" x2="152.9" y2="104.4"/>
		</g>
	</g>
</g>
</svg>
